<?xml version="1.0" encoding="utf-8"?>
<!-- Svg Vector Icons : http://www.onlinewebfonts.com/icon -->
<!DOCTYPE svg PUBLIC "-//W3C//DTD SVG 1.1//EN" "http://www.w3.org/Graphics/SVG/1.1/DTD/svg11.dtd">
<svg fill="#516F7F" version="1.1" xmlns="http://www.w3.org/2000/svg" xmlns:xlink="http://www.w3.org/1999/xlink" x="0px" y="0px" viewBox="0 0 1000 1000" enable-background="new 0 0 1000 1000" xml:space="preserve">
<metadata> Svg Vector Icons : http://www.onlinewebfonts.com/icon </metadata>
<g><g><path d="M982.2,631C769.4,503.3,612.8,54.1,611.1,49.7c-8.3-22.2-20.5-34.8-36.4-34.8c-9.8,0-22.1,5.7-25.4,32.9c-0.7,5.9-1.5,12.7-2.3,20l-11.1-21C520.1,17,507.8,17,503.7,17c-6.9,0-15.9,4.1-18.6,15.8c-2.4,10.5-7,37.7-9.9,57c-1.9,12.6-2.1,25.3-2.3,37.7c-0.6,34.6-2.1,56.5-25.1,71c-9.7,6.1-19.3,11.7-28.5,17.2c-33.9,20-66,38.9-95.2,73.3c-12.2,14.4-21.4,29.8-30.2,44.7c-5.6,9.4-10.8,18.3-16.8,26.9c-12.1,17.5-30.2,26.4-51.1,36.7c-1.9,0.9-3.8,1.9-5.7,2.8c-46.7,23.2-93.8,47.2-139.4,70.5l-24.5,12.5c-3.5,1.8-7.1,3.5-10.7,5.1c-17.2,7.9-45.9,21-32.1,55c8.9,21.9,40.1,45.2,53.1,54.2c38.8,26.8,85.4,39.9,142.5,39.9c19.6,0,39.3-1.5,58.8-3.8c-0.2,0.1-0.5,0.2-0.7,0.2c-3.8,1.3-7.6,2.5-11.4,3.8c-7.3,2.5-17.1,5.2-27.4,8.1c-47.2,13.1-76.3,22.2-79.5,44.3c-1.1,7.7,0.9,19,17.2,29.2c32.9,20.7,91.3,34,148.8,34c34.4,0,68.2-4.4,100.5-13.2c11.4-3.1,23.5-8.1,36.4-13.4c20.9-8.7,44.5-18.5,64-18.5c3.7,0,7.2,0.3,10.4,1.1c2.5,5,5.2,17.4,6.3,22.4c0.4,1.8,0.7,3.4,1.1,4.9c17.7,78.1,36.7,156.4,56.2,236.3c1.8,7.2,8.2,12.3,15.7,12.3h39.6c5.9,0,11.3-3.2,14.1-8.3c72.7-131.3,186.3-229.3,320-276.1c6.5-2.3,10.8-8.4,10.8-15.2v-40.7C990,639.1,987,633.9,982.2,631z"/></g><g></g><g></g><g></g><g></g><g></g><g></g><g></g><g></g><g></g><g></g><g></g><g></g><g></g><g></g><g></g></g>
</svg>
